<mxfile host="app.diagrams.net" modified="2023-03-26T21:25:24.468Z" agent="Mozilla/5.0 (Windows NT 10.0; Win64; x64) AppleWebKit/537.36 (KHTML, like Gecko) Chrome/111.0.0.0 Safari/537.36" etag="6fmeABy4m1tnGuH-0h2h" version="21.1.1" type="device">
  <diagram name="Page-1" id="b520641d-4fe3-3701-9064-5fc419738815">
    <mxGraphModel dx="700" dy="446" grid="1" gridSize="10" guides="1" tooltips="1" connect="1" arrows="1" fold="1" page="1" pageScale="1" pageWidth="1100" pageHeight="850" background="none" math="0" shadow="0">
      <root>
        <mxCell id="0" />
        <mxCell id="1" parent="0" />
        <mxCell id="Ob08jAPnSEszlqGdP0W3-1" style="edgeStyle=orthogonalEdgeStyle;rounded=0;orthogonalLoop=1;jettySize=auto;html=1;exitX=1;exitY=0.5;exitDx=0;exitDy=0;entryX=0;entryY=0.5;entryDx=0;entryDy=0;" edge="1" parent="1" source="uqGk0ng3a3tmMUe4CBW8-1" target="uqGk0ng3a3tmMUe4CBW8-13">
          <mxGeometry relative="1" as="geometry" />
        </mxCell>
        <mxCell id="Ob08jAPnSEszlqGdP0W3-30" style="edgeStyle=orthogonalEdgeStyle;rounded=0;orthogonalLoop=1;jettySize=auto;html=1;exitX=0.5;exitY=1;exitDx=0;exitDy=0;entryX=0.493;entryY=-0.081;entryDx=0;entryDy=0;entryPerimeter=0;" edge="1" parent="1" source="uqGk0ng3a3tmMUe4CBW8-1" target="uqGk0ng3a3tmMUe4CBW8-2">
          <mxGeometry relative="1" as="geometry" />
        </mxCell>
        <mxCell id="uqGk0ng3a3tmMUe4CBW8-1" value="DFF0" style="rounded=0;whiteSpace=wrap;html=1;fillColor=none;fontFamily=Times New Roman;" parent="1" vertex="1">
          <mxGeometry x="360" y="80" width="80" height="40" as="geometry" />
        </mxCell>
        <mxCell id="Ob08jAPnSEszlqGdP0W3-4" style="edgeStyle=orthogonalEdgeStyle;rounded=0;orthogonalLoop=1;jettySize=auto;html=1;exitX=1;exitY=0.5;exitDx=0;exitDy=0;entryX=0;entryY=0.5;entryDx=0;entryDy=0;" edge="1" parent="1" source="uqGk0ng3a3tmMUe4CBW8-2" target="uqGk0ng3a3tmMUe4CBW8-13">
          <mxGeometry relative="1" as="geometry" />
        </mxCell>
        <mxCell id="Ob08jAPnSEszlqGdP0W3-31" style="edgeStyle=orthogonalEdgeStyle;rounded=0;orthogonalLoop=1;jettySize=auto;html=1;exitX=0.5;exitY=1;exitDx=0;exitDy=0;entryX=0.5;entryY=0;entryDx=0;entryDy=0;" edge="1" parent="1" source="uqGk0ng3a3tmMUe4CBW8-2" target="uqGk0ng3a3tmMUe4CBW8-5">
          <mxGeometry relative="1" as="geometry" />
        </mxCell>
        <mxCell id="uqGk0ng3a3tmMUe4CBW8-2" value="DFF1" style="rounded=0;whiteSpace=wrap;html=1;fillColor=none;fontFamily=Times New Roman;" parent="1" vertex="1">
          <mxGeometry x="360" y="150" width="80" height="40" as="geometry" />
        </mxCell>
        <mxCell id="Ob08jAPnSEszlqGdP0W3-5" style="edgeStyle=orthogonalEdgeStyle;rounded=0;orthogonalLoop=1;jettySize=auto;html=1;exitX=1;exitY=0.5;exitDx=0;exitDy=0;entryX=0;entryY=0.5;entryDx=0;entryDy=0;" edge="1" parent="1" source="uqGk0ng3a3tmMUe4CBW8-5" target="uqGk0ng3a3tmMUe4CBW8-13">
          <mxGeometry relative="1" as="geometry" />
        </mxCell>
        <mxCell id="Ob08jAPnSEszlqGdP0W3-32" style="edgeStyle=orthogonalEdgeStyle;rounded=0;orthogonalLoop=1;jettySize=auto;html=1;exitX=0.5;exitY=1;exitDx=0;exitDy=0;" edge="1" parent="1" source="uqGk0ng3a3tmMUe4CBW8-5" target="uqGk0ng3a3tmMUe4CBW8-6">
          <mxGeometry relative="1" as="geometry" />
        </mxCell>
        <mxCell id="uqGk0ng3a3tmMUe4CBW8-5" value="DFF2" style="rounded=0;whiteSpace=wrap;html=1;fillColor=none;fontFamily=Times New Roman;" parent="1" vertex="1">
          <mxGeometry x="360" y="220" width="80" height="40" as="geometry" />
        </mxCell>
        <mxCell id="Ob08jAPnSEszlqGdP0W3-8" style="edgeStyle=orthogonalEdgeStyle;rounded=0;orthogonalLoop=1;jettySize=auto;html=1;exitX=1;exitY=0.5;exitDx=0;exitDy=0;entryX=0;entryY=0.5;entryDx=0;entryDy=0;" edge="1" parent="1" source="uqGk0ng3a3tmMUe4CBW8-6" target="uqGk0ng3a3tmMUe4CBW8-13">
          <mxGeometry relative="1" as="geometry" />
        </mxCell>
        <mxCell id="Ob08jAPnSEszlqGdP0W3-33" style="edgeStyle=orthogonalEdgeStyle;rounded=0;orthogonalLoop=1;jettySize=auto;html=1;exitX=0.5;exitY=1;exitDx=0;exitDy=0;entryX=0.5;entryY=0;entryDx=0;entryDy=0;" edge="1" parent="1" source="uqGk0ng3a3tmMUe4CBW8-6" target="uqGk0ng3a3tmMUe4CBW8-9">
          <mxGeometry relative="1" as="geometry" />
        </mxCell>
        <mxCell id="uqGk0ng3a3tmMUe4CBW8-6" value="DFF3" style="rounded=0;whiteSpace=wrap;html=1;fillColor=none;fontFamily=Times New Roman;" parent="1" vertex="1">
          <mxGeometry x="360" y="290" width="80" height="40" as="geometry" />
        </mxCell>
        <mxCell id="Ob08jAPnSEszlqGdP0W3-13" style="edgeStyle=orthogonalEdgeStyle;rounded=0;orthogonalLoop=1;jettySize=auto;html=1;exitX=1;exitY=0.5;exitDx=0;exitDy=0;entryX=0;entryY=0.5;entryDx=0;entryDy=0;" edge="1" parent="1" source="uqGk0ng3a3tmMUe4CBW8-7" target="uqGk0ng3a3tmMUe4CBW8-13">
          <mxGeometry relative="1" as="geometry" />
        </mxCell>
        <mxCell id="Ob08jAPnSEszlqGdP0W3-37" style="edgeStyle=orthogonalEdgeStyle;rounded=0;orthogonalLoop=1;jettySize=auto;html=1;exitX=0.5;exitY=1;exitDx=0;exitDy=0;entryX=0.5;entryY=0;entryDx=0;entryDy=0;" edge="1" parent="1" source="uqGk0ng3a3tmMUe4CBW8-7" target="Ob08jAPnSEszlqGdP0W3-2">
          <mxGeometry relative="1" as="geometry" />
        </mxCell>
        <mxCell id="uqGk0ng3a3tmMUe4CBW8-7" value="DFF6" style="rounded=0;whiteSpace=wrap;html=1;fillColor=none;fontFamily=Times New Roman;" parent="1" vertex="1">
          <mxGeometry x="360" y="500" width="80" height="40" as="geometry" />
        </mxCell>
        <mxCell id="Ob08jAPnSEszlqGdP0W3-12" style="edgeStyle=orthogonalEdgeStyle;rounded=0;orthogonalLoop=1;jettySize=auto;html=1;exitX=1;exitY=0.5;exitDx=0;exitDy=0;entryX=0;entryY=0.5;entryDx=0;entryDy=0;" edge="1" parent="1" source="uqGk0ng3a3tmMUe4CBW8-8" target="uqGk0ng3a3tmMUe4CBW8-13">
          <mxGeometry relative="1" as="geometry" />
        </mxCell>
        <mxCell id="Ob08jAPnSEszlqGdP0W3-36" style="edgeStyle=orthogonalEdgeStyle;rounded=0;orthogonalLoop=1;jettySize=auto;html=1;exitX=0.5;exitY=1;exitDx=0;exitDy=0;entryX=0.5;entryY=0;entryDx=0;entryDy=0;" edge="1" parent="1" source="uqGk0ng3a3tmMUe4CBW8-8" target="uqGk0ng3a3tmMUe4CBW8-7">
          <mxGeometry relative="1" as="geometry" />
        </mxCell>
        <mxCell id="uqGk0ng3a3tmMUe4CBW8-8" value="DFF5" style="rounded=0;whiteSpace=wrap;html=1;fillColor=none;fontFamily=Times New Roman;" parent="1" vertex="1">
          <mxGeometry x="360" y="425" width="80" height="40" as="geometry" />
        </mxCell>
        <mxCell id="Ob08jAPnSEszlqGdP0W3-11" style="edgeStyle=orthogonalEdgeStyle;rounded=0;orthogonalLoop=1;jettySize=auto;html=1;exitX=1;exitY=0.5;exitDx=0;exitDy=0;entryX=0;entryY=0.5;entryDx=0;entryDy=0;" edge="1" parent="1" source="uqGk0ng3a3tmMUe4CBW8-9" target="uqGk0ng3a3tmMUe4CBW8-13">
          <mxGeometry relative="1" as="geometry" />
        </mxCell>
        <mxCell id="Ob08jAPnSEszlqGdP0W3-34" style="edgeStyle=orthogonalEdgeStyle;rounded=0;orthogonalLoop=1;jettySize=auto;html=1;exitX=0.5;exitY=1;exitDx=0;exitDy=0;entryX=0.5;entryY=0;entryDx=0;entryDy=0;" edge="1" parent="1" source="uqGk0ng3a3tmMUe4CBW8-9" target="uqGk0ng3a3tmMUe4CBW8-8">
          <mxGeometry relative="1" as="geometry" />
        </mxCell>
        <mxCell id="uqGk0ng3a3tmMUe4CBW8-9" value="DFF4" style="rounded=0;whiteSpace=wrap;html=1;fillColor=none;fontFamily=Times New Roman;" parent="1" vertex="1">
          <mxGeometry x="360" y="360" width="80" height="40" as="geometry" />
        </mxCell>
        <mxCell id="Ob08jAPnSEszlqGdP0W3-15" style="edgeStyle=orthogonalEdgeStyle;rounded=0;orthogonalLoop=1;jettySize=auto;html=1;exitX=1;exitY=0.5;exitDx=0;exitDy=0;entryX=0;entryY=0.5;entryDx=0;entryDy=0;" edge="1" parent="1" source="uqGk0ng3a3tmMUe4CBW8-13" target="uqGk0ng3a3tmMUe4CBW8-20">
          <mxGeometry relative="1" as="geometry" />
        </mxCell>
        <mxCell id="uqGk0ng3a3tmMUe4CBW8-13" value="Seven Seg Controller" style="rounded=0;whiteSpace=wrap;html=1;fillColor=none;fontFamily=Times New Roman;" parent="1" vertex="1">
          <mxGeometry x="520" y="360" width="80" height="40" as="geometry" />
        </mxCell>
        <mxCell id="Ob08jAPnSEszlqGdP0W3-3" style="edgeStyle=orthogonalEdgeStyle;rounded=0;orthogonalLoop=1;jettySize=auto;html=1;exitX=1;exitY=0.5;exitDx=0;exitDy=0;entryX=0;entryY=0.5;entryDx=0;entryDy=0;" edge="1" parent="1" source="Ob08jAPnSEszlqGdP0W3-2" target="uqGk0ng3a3tmMUe4CBW8-13">
          <mxGeometry relative="1" as="geometry" />
        </mxCell>
        <mxCell id="Ob08jAPnSEszlqGdP0W3-2" value="DFF7" style="rounded=0;whiteSpace=wrap;html=1;fillColor=none;fontFamily=Times New Roman;" vertex="1" parent="1">
          <mxGeometry x="360" y="570" width="80" height="40" as="geometry" />
        </mxCell>
        <mxCell id="Ob08jAPnSEszlqGdP0W3-14" value="" style="group;fillColor=none;" vertex="1" connectable="0" parent="1">
          <mxGeometry x="650" y="350" width="180.48000000000002" height="60" as="geometry" />
        </mxCell>
        <mxCell id="uqGk0ng3a3tmMUe4CBW8-16" value="" style="verticalLabelPosition=bottom;shadow=0;dashed=0;align=center;html=1;verticalAlign=top;shape=mxgraph.electrical.opto_electronics.7_segment_display;pointerEvents=1;" parent="Ob08jAPnSEszlqGdP0W3-14" vertex="1">
          <mxGeometry y="0.9799999999999898" width="45.12" height="58.05" as="geometry" />
        </mxCell>
        <mxCell id="uqGk0ng3a3tmMUe4CBW8-17" value="" style="verticalLabelPosition=bottom;shadow=0;dashed=0;align=center;html=1;verticalAlign=top;shape=mxgraph.electrical.opto_electronics.7_segment_display;pointerEvents=1;" parent="Ob08jAPnSEszlqGdP0W3-14" vertex="1">
          <mxGeometry x="45.120000000000005" width="45.12" height="58.05" as="geometry" />
        </mxCell>
        <mxCell id="uqGk0ng3a3tmMUe4CBW8-18" value="" style="verticalLabelPosition=bottom;shadow=0;dashed=0;align=center;html=1;verticalAlign=top;shape=mxgraph.electrical.opto_electronics.7_segment_display;pointerEvents=1;" parent="Ob08jAPnSEszlqGdP0W3-14" vertex="1">
          <mxGeometry x="90.24000000000001" width="45.12" height="58.05" as="geometry" />
        </mxCell>
        <mxCell id="uqGk0ng3a3tmMUe4CBW8-19" value="" style="verticalLabelPosition=bottom;shadow=0;dashed=0;align=center;html=1;verticalAlign=top;shape=mxgraph.electrical.opto_electronics.7_segment_display;pointerEvents=1;" parent="Ob08jAPnSEszlqGdP0W3-14" vertex="1">
          <mxGeometry x="135.36" width="45.12" height="58.05" as="geometry" />
        </mxCell>
        <mxCell id="uqGk0ng3a3tmMUe4CBW8-20" value="" style="rounded=0;whiteSpace=wrap;html=1;fillColor=none;fontFamily=Times New Roman;" parent="Ob08jAPnSEszlqGdP0W3-14" vertex="1">
          <mxGeometry width="180" height="60" as="geometry" />
        </mxCell>
        <mxCell id="Ob08jAPnSEszlqGdP0W3-22" style="edgeStyle=orthogonalEdgeStyle;rounded=0;orthogonalLoop=1;jettySize=auto;html=1;exitX=1;exitY=0.5;exitDx=0;exitDy=0;entryX=0;entryY=0.5;entryDx=0;entryDy=0;" edge="1" parent="1" source="Ob08jAPnSEszlqGdP0W3-16" target="Ob08jAPnSEszlqGdP0W3-2">
          <mxGeometry relative="1" as="geometry" />
        </mxCell>
        <mxCell id="Ob08jAPnSEszlqGdP0W3-23" style="edgeStyle=orthogonalEdgeStyle;rounded=0;orthogonalLoop=1;jettySize=auto;html=1;exitX=1;exitY=0.5;exitDx=0;exitDy=0;entryX=0;entryY=0.5;entryDx=0;entryDy=0;" edge="1" parent="1" source="Ob08jAPnSEszlqGdP0W3-16" target="uqGk0ng3a3tmMUe4CBW8-7">
          <mxGeometry relative="1" as="geometry" />
        </mxCell>
        <mxCell id="Ob08jAPnSEszlqGdP0W3-24" style="edgeStyle=orthogonalEdgeStyle;rounded=0;orthogonalLoop=1;jettySize=auto;html=1;exitX=1;exitY=0.5;exitDx=0;exitDy=0;entryX=0;entryY=0.5;entryDx=0;entryDy=0;" edge="1" parent="1" source="Ob08jAPnSEszlqGdP0W3-16" target="uqGk0ng3a3tmMUe4CBW8-8">
          <mxGeometry relative="1" as="geometry" />
        </mxCell>
        <mxCell id="Ob08jAPnSEszlqGdP0W3-25" style="edgeStyle=orthogonalEdgeStyle;rounded=0;orthogonalLoop=1;jettySize=auto;html=1;exitX=1;exitY=0.5;exitDx=0;exitDy=0;entryX=0;entryY=0.5;entryDx=0;entryDy=0;" edge="1" parent="1" source="Ob08jAPnSEszlqGdP0W3-16" target="uqGk0ng3a3tmMUe4CBW8-9">
          <mxGeometry relative="1" as="geometry" />
        </mxCell>
        <mxCell id="Ob08jAPnSEszlqGdP0W3-26" style="edgeStyle=orthogonalEdgeStyle;rounded=0;orthogonalLoop=1;jettySize=auto;html=1;exitX=1;exitY=0.5;exitDx=0;exitDy=0;entryX=0;entryY=0.5;entryDx=0;entryDy=0;" edge="1" parent="1" source="Ob08jAPnSEszlqGdP0W3-16" target="uqGk0ng3a3tmMUe4CBW8-6">
          <mxGeometry relative="1" as="geometry" />
        </mxCell>
        <mxCell id="Ob08jAPnSEszlqGdP0W3-27" style="edgeStyle=orthogonalEdgeStyle;rounded=0;orthogonalLoop=1;jettySize=auto;html=1;exitX=1;exitY=0.5;exitDx=0;exitDy=0;entryX=0;entryY=0.5;entryDx=0;entryDy=0;" edge="1" parent="1" source="Ob08jAPnSEszlqGdP0W3-16" target="uqGk0ng3a3tmMUe4CBW8-5">
          <mxGeometry relative="1" as="geometry" />
        </mxCell>
        <mxCell id="Ob08jAPnSEszlqGdP0W3-28" style="edgeStyle=orthogonalEdgeStyle;rounded=0;orthogonalLoop=1;jettySize=auto;html=1;exitX=1;exitY=0.5;exitDx=0;exitDy=0;entryX=0;entryY=0.5;entryDx=0;entryDy=0;" edge="1" parent="1" source="Ob08jAPnSEszlqGdP0W3-16" target="uqGk0ng3a3tmMUe4CBW8-2">
          <mxGeometry relative="1" as="geometry" />
        </mxCell>
        <mxCell id="Ob08jAPnSEszlqGdP0W3-29" style="edgeStyle=orthogonalEdgeStyle;rounded=0;orthogonalLoop=1;jettySize=auto;html=1;exitX=1;exitY=0.5;exitDx=0;exitDy=0;entryX=0;entryY=0.5;entryDx=0;entryDy=0;" edge="1" parent="1" source="Ob08jAPnSEszlqGdP0W3-16" target="uqGk0ng3a3tmMUe4CBW8-1">
          <mxGeometry relative="1" as="geometry" />
        </mxCell>
        <mxCell id="Ob08jAPnSEszlqGdP0W3-16" value="Combinational Logic" style="rounded=0;whiteSpace=wrap;html=1;fillColor=none;fontFamily=Times New Roman;" vertex="1" parent="1">
          <mxGeometry x="120" y="380" width="80" height="40" as="geometry" />
        </mxCell>
        <mxCell id="Ob08jAPnSEszlqGdP0W3-44" style="edgeStyle=orthogonalEdgeStyle;rounded=0;orthogonalLoop=1;jettySize=auto;html=1;exitX=1;exitY=0.5;exitDx=0;exitDy=0;entryX=0;entryY=0.5;entryDx=0;entryDy=0;" edge="1" parent="1" source="Ob08jAPnSEszlqGdP0W3-17" target="Ob08jAPnSEszlqGdP0W3-18">
          <mxGeometry relative="1" as="geometry" />
        </mxCell>
        <mxCell id="Ob08jAPnSEszlqGdP0W3-17" value="Input Buttons" style="rounded=0;whiteSpace=wrap;html=1;fillColor=none;fontFamily=Times New Roman;" vertex="1" parent="1">
          <mxGeometry x="10" y="310" width="80" height="40" as="geometry" />
        </mxCell>
        <mxCell id="Ob08jAPnSEszlqGdP0W3-20" style="edgeStyle=orthogonalEdgeStyle;rounded=0;orthogonalLoop=1;jettySize=auto;html=1;exitX=0.5;exitY=1;exitDx=0;exitDy=0;entryX=0.5;entryY=0;entryDx=0;entryDy=0;" edge="1" parent="1" source="Ob08jAPnSEszlqGdP0W3-18" target="Ob08jAPnSEszlqGdP0W3-16">
          <mxGeometry relative="1" as="geometry" />
        </mxCell>
        <mxCell id="Ob08jAPnSEszlqGdP0W3-18" value="Debouncer" style="rounded=0;whiteSpace=wrap;html=1;fillColor=none;fontFamily=Times New Roman;" vertex="1" parent="1">
          <mxGeometry x="120" y="310" width="80" height="40" as="geometry" />
        </mxCell>
        <mxCell id="Ob08jAPnSEszlqGdP0W3-21" value="" style="endArrow=classic;html=1;rounded=0;entryX=0.5;entryY=1;entryDx=0;entryDy=0;" edge="1" parent="1" target="Ob08jAPnSEszlqGdP0W3-16">
          <mxGeometry width="50" height="50" relative="1" as="geometry">
            <mxPoint x="480" y="590" as="sourcePoint" />
            <mxPoint x="300" y="470" as="targetPoint" />
            <Array as="points">
              <mxPoint x="480" y="590" />
              <mxPoint x="480" y="640" />
              <mxPoint x="160" y="640" />
            </Array>
          </mxGeometry>
        </mxCell>
        <mxCell id="Ob08jAPnSEszlqGdP0W3-41" style="edgeStyle=orthogonalEdgeStyle;rounded=0;orthogonalLoop=1;jettySize=auto;html=1;exitX=0.5;exitY=0;exitDx=0;exitDy=0;entryX=0.5;entryY=0;entryDx=0;entryDy=0;" edge="1" parent="1" source="Ob08jAPnSEszlqGdP0W3-38" target="uqGk0ng3a3tmMUe4CBW8-1">
          <mxGeometry relative="1" as="geometry" />
        </mxCell>
        <mxCell id="Ob08jAPnSEszlqGdP0W3-45" style="edgeStyle=orthogonalEdgeStyle;rounded=0;orthogonalLoop=1;jettySize=auto;html=1;exitX=0.5;exitY=1;exitDx=0;exitDy=0;entryX=0.5;entryY=0;entryDx=0;entryDy=0;" edge="1" parent="1" source="Ob08jAPnSEszlqGdP0W3-38" target="Ob08jAPnSEszlqGdP0W3-18">
          <mxGeometry relative="1" as="geometry" />
        </mxCell>
        <mxCell id="Ob08jAPnSEszlqGdP0W3-38" value="CLK and Reset" style="rounded=0;whiteSpace=wrap;html=1;fillColor=none;fontFamily=Times New Roman;" vertex="1" parent="1">
          <mxGeometry x="120" y="150" width="80" height="40" as="geometry" />
        </mxCell>
      </root>
    </mxGraphModel>
  </diagram>
</mxfile>
